<svg xmlns="http://www.w3.org/2000/svg" width="75.281" height="75.281" viewBox="0 0 75.281 75.281"><defs><style>.a{fill:#ff8403;}</style></defs><g transform="translate(34.45 63.204)"><path class="a" d="M236.811,430.29a1.469,1.469,0,1,0,.431,1.039A1.482,1.482,0,0,0,236.811,430.29Z" transform="translate(-234.301 -429.859)"/></g><g transform="translate(0 37.781)"><path class="a" d="M43.961,269.247V258.428a1.47,1.47,0,0,0-2.02-1.364l-25.336,10.2H8.446a8.445,8.445,0,0,0,0,16.89h.972v8.83a1.47,1.47,0,0,0,1.47,1.47h6a1.47,1.47,0,0,0,1.47-1.47v-8.12l23.582,9.485a1.47,1.47,0,0,0,2.019-1.364V282.169a6.626,6.626,0,0,0,0-12.922ZM15.42,291.517H12.358v-7.359H15.42v7.359Zm0-10.3H8.446a5.5,5.5,0,1,1,0-11.008h6.975Zm25.6,9.594h0L18.362,281.7V269.731l16.089-6.48v14.592a1.47,1.47,0,0,0,2.941,0V262.067l3.629-1.462Zm2.941-11.724v-6.759a3.685,3.685,0,0,1,0,6.759Z" transform="translate(-0.001 -256.958)"/></g><g transform="translate(53.349 55.105)"><path class="a" d="M372.63,374.775h-8.325a1.47,1.47,0,0,0,0,2.941h8.325a1.47,1.47,0,1,0,0-2.941Z" transform="translate(-362.835 -374.775)"/></g><g transform="translate(50.935 43.9)"><path class="a" d="M351.8,299a1.471,1.471,0,0,0-2.08,0l-2.872,2.871a1.47,1.47,0,0,0,2.079,2.08l2.872-2.872A1.471,1.471,0,0,0,351.8,299Z" transform="translate(-346.418 -298.57)"/></g><g transform="translate(50.947 63.205)"><path class="a" d="M351.977,433.262l-2.968-2.968a1.47,1.47,0,1,0-2.079,2.08l2.968,2.968a1.47,1.47,0,0,0,2.079-2.08Z" transform="translate(-346.499 -429.864)"/></g><g transform="translate(7.94)"><path class="a" d="M115.461,0H88.113a5.888,5.888,0,0,0-5.881,5.881v.588H57.53A3.533,3.533,0,0,0,54,10V33.23a3.533,3.533,0,0,0,3.529,3.529h1.519v4.509a1.47,1.47,0,0,0,2.51,1.04l5.549-5.549H96.314a3.533,3.533,0,0,0,3.529-3.529V28.819h15.618a5.888,5.888,0,0,0,5.881-5.881V5.881A5.888,5.888,0,0,0,115.461,0ZM96.9,33.23a.589.589,0,0,1-.588.588H66.5a1.47,1.47,0,0,0-1.04.431L61.99,37.718v-2.43a1.47,1.47,0,0,0-1.47-1.47H57.53a.589.589,0,0,1-.588-.588V10a.589.589,0,0,1,.588-.588h24.7V22.937a5.888,5.888,0,0,0,5.881,5.881H96.9Zm21.5-10.292a2.944,2.944,0,0,1-2.941,2.941H88.113a2.944,2.944,0,0,1-2.941-2.941V5.881a2.944,2.944,0,0,1,2.941-2.941h27.348A2.944,2.944,0,0,1,118.4,5.881Z" transform="translate(-54.001)"/></g><g transform="translate(49.364 7.129)"><path class="a" d="M348,54.493l-10.063-5.81a1.47,1.47,0,0,0-2.206,1.273v11.62a1.47,1.47,0,0,0,2.206,1.273L348,57.039a1.47,1.47,0,0,0,0-2.546Zm-9.328,4.536V52.5l5.652,3.263Z" transform="translate(-335.736 -48.486)"/></g><g transform="translate(15.367 15.439)"><path class="a" d="M120.686,105h-14.7a1.47,1.47,0,0,0,0,2.941h14.7a1.47,1.47,0,1,0,0-2.941Z" transform="translate(-104.512 -105)"/></g><g transform="translate(30.07 23.672)"><path class="a" d="M207.021,161.431a1.47,1.47,0,1,0,.431,1.04A1.481,1.481,0,0,0,207.021,161.431Z" transform="translate(-204.511 -161)"/></g><g transform="translate(15.367 23.672)"><path class="a" d="M115.17,161h-9.188a1.47,1.47,0,0,0,0,2.941h9.188a1.47,1.47,0,0,0,0-2.941Z" transform="translate(-104.512 -161)"/></g></svg>