<svg xmlns="http://www.w3.org/2000/svg" width="17.763" height="12.728" viewBox="0 0 17.763 12.728">
  <path id="bars" d="M.634,62.338H17.128a.586.586,0,0,0,.634-.519v-1.3A.586.586,0,0,0,17.128,60H.634A.586.586,0,0,0,0,60.519v1.3A.586.586,0,0,0,.634,62.338Zm0,5.195H17.128a.586.586,0,0,0,.634-.519v-1.3a.586.586,0,0,0-.634-.519H.634A.586.586,0,0,0,0,65.714v1.3A.586.586,0,0,0,.634,67.533Zm0,5.195H17.128a.586.586,0,0,0,.634-.519v-1.3a.586.586,0,0,0-.634-.519H.634A.586.586,0,0,0,0,70.909v1.3A.586.586,0,0,0,.634,72.728Z" transform="translate(0 -60)" fill="rgba(0,0,0,0.6)"/>
</svg>
