<svg id="_001-globo-terraqueo-con-mapas-continentes" data-name="001-globo-terraqueo-con-mapas-continentes" xmlns="http://www.w3.org/2000/svg" width="13.672" height="13.956" viewBox="0 0 13.672 13.956">
  <path id="Path_129" data-name="Path 129" d="M12.614,4.961l.121.087h.113V4.83l.357-.035.339.252H14.1l.039-.036q-.084-.282-.189-.553l-.363.006-.182-.2-.035-.322-.187.1-.1.393-.27-.287L12.8,3.88l-.26-.224-.1-.1h-.3l.095.269.363.2.063.067-.079.039,0,.213-.177.074-.151-.033-.095-.134.246.013.066-.089-.545-.367-.042-.157-.221.2-.224-.046-.341.444-.067.174-.218.02-.323,0-.193-.09-.057-.384.069-.183.329-.072.359.072.044-.2L10.9,3.561l.052-.309.361-.056.252-.356.261-.044.235.035h.087L12.1,2.495l-.286.115-.1-.25-.166-.023-.031-.171.135-.147.322-.126.083-.148a6.958,6.958,0,0,0-8.707-.407l.352,0,.157.087.3.064.023.116.47.017L4.58,1.467l-.417-.012.1-.093-.034-.11H3.849L4.261.945h.394L4.84,1.2l.308.017.185-.18.139.069-.255.249-.336.006a1.169,1.169,0,0,1,.029.243l.429-.012.046-.116.3-.018.035-.174-.174-.029L5.6,1.1l.133-.04.464.023-.256.232.041.18.267.041-.017-.325.255-.133.452-.052.655.29v.249l.209.052-.1.2H7.4l-.088.226L6.64,1.882,7.171,1.6l-.2-.172-.458.058-.04.042h0l-.007.01-.132.137-.218.018.017.109.076.032,0,.036-.177.025-.013.1L5.842,2l-.031-.2-.3.093-.622.364.07.256.174.113.348.048v.4l.161-.026.148-.309.37-.117V2.142l.206-.155.5.117-.035.313h.133l.366-.18.018.411.266.162-.011.244-.255.087.017.081.307.14-.006.168-.089.008a.024.024,0,0,0,0,0l-.388-.12L7.164,3.29h0l.113-.078V3.1l-.122-.031-.03.1-.214.033L6.89,3.2V3.21l-.074.011L6.756,3.1l-.07-.031H6.534l-.069.057v.126l.13.043.129.018-.029.013-.117.13-.052-.065-.113-.03L6.1,3.652l.04.033-.456.253-.429.447-.029.2-.43.283-.213.214.024.429-.3-.138,0-.251H3.492l-.426.216-.185.341-.073.271.12.262.336.041L3.8,5.895l.047.177-.163.308.406.069.041.627.557.095.354-.409.429.087.151.21.412-.024.012-.122.226.11.255.4.441.006.163.285.023.348.487.185.615.006.18.3.272.087-.052.244-.3.379-.087.84-.27.213L7.6,10.3l-.133.232.1.436-.435.556-.139.255-.415.2L6.3,12.02l-.011.116.191.055-.023.125-.171.165.1.131.206.006-.012.159-.055.157-.018.127.305.257-.041.133-.415-.008-.413-.36-.322-.566.045-.546-.244-.325.1-.551-.145-.04V9.86s-.406-.308-.429-.308S4.736,9.5,4.736,9.5L4.7,9.274l-.528-.661.052-.238.017-.389L4.6,7.731,4.551,7.3l-.533-.04L3.6,6.781,3.3,6.7l-.191-.035.023-.174-.244-.035v.1L2.283,6.4l-.245-.375.1-.182-.386-.563-.066-.412H1.53l.052.4.267.412-.029.163L1.593,5.81l-.278-.474V4.784l-.29-.139v-.4a6.975,6.975,0,0,0,11.834,7.13h-.23v-.464l-.266-.359V10l-.2-.2-.018-.232.258-.493L11.91,8.2l.057-.586-.441-.046-.162-.162h-.3l-.15.139H10.4l-.018.046h-.29l-.666-.759.005-.592.11-.04.041-.226H9.421L9.357,5.74l.771-.556V4.79l.377-.21.153.015h.31l.243-.13.783-.061v.4ZM10.657,2.473l.064-.1.229-.046.057.279.122.2.081.093.148.058-.139.166-.27.026h-.2l.023-.241.169-.035-.014-.113-.157-.1-.11-.075v-.11Zm-.376.435.139-.223.188-.044.133.058-.012.151-.287.2h-.162V2.908Zm-3.791.858-.145.012.008-.1L6.416,3.6l.087.069ZM7,3.588,6.9,3.6l-.02.1L6.8,3.74l-.123.01c0-.029-.007-.051-.007-.051H6.625V3.6h.2l.041-.106.079,0,.091.019Z" transform="translate(-0.468)" fill="#fff"/>
</svg>
