<svg xmlns="http://www.w3.org/2000/svg" width="56.086" height="51.085" viewBox="0 0 56.086 51.085"><defs><style>.a{fill:#36c;}</style></defs><path class="a" d="M1091.486,2999.188a3.874,3.874,0,0,0-3.9-3.9h-21.307a3.962,3.962,0,0,0-4,3.9v23.757l2.8-2.526c.131-.119.276-.227.381-.323,1.276-1.176,1.6-1.364,3.268-1.331.227.005.5.007.828.007h18.033a3.9,3.9,0,0,0,3.9-3.932Zm2.781,0v15.652a6.685,6.685,0,0,1-6.678,6.712h-18.033c-.353,0-.643,0-.886-.008s-.541-.006-.652.006a8.6,8.6,0,0,0-.677.592c-.108.1-.232.21-.366.331l-5.1,4.651a1.424,1.424,0,0,1-2.371-1.027v-14.742h-14.566a3.983,3.983,0,0,0-3.974,3.952v15.652a3.922,3.922,0,0,0,3.974,3.88h20.142a1.388,1.388,0,0,1,.927.394l4.157,3.832v-13.216a1.391,1.391,0,1,1,2.781,0v16.366a1.373,1.373,0,0,1-.819,1.267,1.333,1.333,0,0,1-.55.108,1.414,1.414,0,0,1-.938-.375l-6.1-5.6h-19.6a6.707,6.707,0,0,1-6.756-6.661v-15.652a6.769,6.769,0,0,1,6.756-6.734H1059.5v-9.386a6.745,6.745,0,0,1,6.779-6.682h21.307A6.659,6.659,0,0,1,1094.268,2999.188Zm-40.842,22.21a1.391,1.391,0,0,0,0,2.782h.117a1.391,1.391,0,0,0,0-2.782Zm-4.831,0a1.391,1.391,0,0,0,0,2.782h.116a1.391,1.391,0,1,0,0-2.782Zm28.028-9.686a1.365,1.365,0,0,0-1.36,1.389v.01a1.361,1.361,0,0,0,1.36,1.386,1.393,1.393,0,0,0,0-2.785Zm4.47-7.164c0,1.7-1.236,2.734-2.14,3.49-.343.287-.979.813-.977,1.007a1.37,1.37,0,0,1-1.379,1.382h-.013a1.372,1.372,0,0,1-1.389-1.357c-.013-1.507,1.086-2.408,1.97-3.149.693-.583,1.147-.992,1.147-1.368a1.376,1.376,0,0,0-2.751,0,1.391,1.391,0,1,1-2.781,0,4.157,4.157,0,0,1,8.314,0Z" transform="translate(-1038.182 -2992.506)"/></svg>