<svg xmlns="http://www.w3.org/2000/svg" width="62.586" height="50.279" viewBox="0 0 62.586 50.279"><defs><style>.a{fill:#36c;}</style></defs><g transform="translate(0)"><path class="a" d="M836.562,2478.781a5.89,5.89,0,0,0-4.09.5c-1.329.688-2.623,1.444-3.941,2.151-2.239,1.2-4.043.646-4.793-1.6a11.118,11.118,0,0,1-.067-6.837c.881-2.852,4.995-15.909,5.82-19.688a4.473,4.473,0,0,0-.332-2.273,1.769,1.769,0,0,0-3.384.078,27.982,27.982,0,0,0-.772,2.718,84.653,84.653,0,0,1-4.4,11.285.877.877,0,0,1-.82.461l-2-.1a.88.88,0,0,1-.827-1.016c.518-3.257,1.711-11.324,1.929-13.8a1.511,1.511,0,0,0-1.243-1.829c-.984-.075-1.377.642-1.631,1.4-.35,1.049-3.308,10.457-4.793,14.958a1.09,1.09,0,0,1-1.034.749,1.1,1.1,0,0,1-1.014-.662c-1.146-2.644-2.218-5.325-3.448-7.928a7.059,7.059,0,0,0-2.032-2.394c-.886-.7-1.746-.187-1.764.966a7.842,7.842,0,0,0,.321,2.209c1.123,4.01,2.316,8,3.419,12.012a23.957,23.957,0,0,1,1.035,4.957c.248,4.714.329,9.439.413,14.16a5.149,5.149,0,0,0,3.339,4.74,16.129,16.129,0,0,0,7.03.809,6.313,6.313,0,0,0,2.469-.484c2.25-1.237,13.879-9.85,17.475-12.84.393-.327.854-1.157.7-1.435A2.735,2.735,0,0,0,836.562,2478.781Z" transform="translate(-801.924 -2444.601)"/><path class="a" d="M847.5,2468.726a1.038,1.038,0,0,1-1.6-.725l0-.018c-.363-6.487-.982-18.98-1.162-20.129a2.384,2.384,0,0,0-.967-1.528c-.624-.37-1.3.087-1.629.693a7.436,7.436,0,0,0-.987,2.39c-.2,1.41-.714,10.505-1.125,13.6-.231,1.748-.806,1.831-2.279.9a4.2,4.2,0,0,0-2.428-.7c-3.722.339-7.43.816-11.137,1.3a1.278,1.278,0,0,0-.828,2.171,3.719,3.719,0,0,0,2.146.907c2.294-.161,4.57-.563,6.852-.866a5.112,5.112,0,0,1,1.35-.121c.289.041.539.356.807.549a2.681,2.681,0,0,1-.812.5c-1.662.3-3.332.561-5,.824-.531.083-.69.329-.612.9.183,1.336,2.188,12.492,5.678,15.367a6.913,6.913,0,0,0,6.663,1.469,14.432,14.432,0,0,0,6.117-4.034,5.3,5.3,0,0,0,1.313-3.153,18.208,18.208,0,0,1,2.69-8.342C853.981,2464.933,849.081,2467.734,847.5,2468.726Z" transform="translate(-789.154 -2446.193)"/><path class="a" d="M827.678,2459.115c.69,2.433.767,2.412,3.334,2.184l.29-.025c1.276-.107,1.331-.247.721-1.422a28.943,28.943,0,0,1-3.43-10.193,1.73,1.73,0,0,0-.331-1c-.36-.361-.886-.836-1.294-.794a2.412,2.412,0,0,0-1.3.967c-.218.266-.186.738-.241,1a5.451,5.451,0,0,0,.066.713C826.214,2453.4,826.871,2456.281,827.678,2459.115Z" transform="translate(-787.699 -2445.18)"/><path class="a" d="M825.887,2459.884a.98.98,0,0,0,.748.467,5.25,5.25,0,0,0,.791-.058.975.975,0,0,0,.763-1.34c-1.112-2.691-2.156-5.233-3.228-7.763-.286-.676-1.045-.733-1.327-.059a3.372,3.372,0,0,0-.294,2.126C824.08,2455.5,824.993,2457.692,825.887,2459.884Z" transform="translate(-789.013 -2443.493)"/><path class="a" d="M818.688,2459.687c-.366.822-.656,1.678-.953,2.529a.419.419,0,0,0,.454.557,28.151,28.151,0,0,0,3.608-.77c.968-.309,1.278-1.073,1.015-2.208-.215-.921-.937-.727-1.567-.7a10.789,10.789,0,0,0-1.644.141C819.27,2459.3,818.795,2459.443,818.688,2459.687Z" transform="translate(-792.373 -2438.408)"/></g></svg>